{
  "source": "C:\\Users\\Peter\\Desktop\\stuff\\MIUN\\quantitative_research\\video_compression\\videos\\BVI-HD\\BVI-HD_CDVL_videos\\ORIG\\BallUnderWater_1920x1080_60fps.mp4",
  "output": "C:\\Users\\Peter\\Desktop\\stuff\\MIUN\\quantitative_research\\video_compression\\compressed_videos\\BVI-HD\\av1\\2\\BallUnderWater_1920x1080_60fps_av1.mkv",
  "codec": "av1",
  "ok": "Input #0, mov,mp4,m4a,3gp,3g2,mj2, from 'C:\\Users\\Peter\\Desktop\\stuff\\MIUN\\quantitative_research\\video_compression\\videos\\BVI-HD\\BVI-HD_CDVL_videos\\ORIG\\BallUnderWater_1920x1080_60fps.mp4':\n  Metadata:\n    major_brand     : isom\n    minor_version   : 512\n    compatible_brands: isomiso2avc1mp41\n    encoder         : Lavf54.28.101\n  Duration: 00:00:05.00, start: 0.000000, bitrate: 212030 kb/s\n  Stream #0:0[0x1](und): Video: h264 (High 4:4:4 Predictive) (avc1 / 0x31637661), yuv420p(progressive), 1920x1080, 212025 kb/s, 60 fps, 60 tbr, 60 tbn (default)\n    Metadata:\n      handler_name    : VideoHandler\n      vendor_id       : [0][0][0][0]\n[out#0/matroska @ 000001a31937a0c0] Codec AVOption b:a (set bitrate (in bits/s)) has not been used for any stream. The most likely reason is either wrong type (e.g. a video option with no video streams) or that it is a private option of some decoder which was not actually used for any stream.\nStream mapping:\n  Stream #0:0 -> #0:0 (h264 (native) -> av1 (libsvtav1))\nPress [q] to stop, [?] for help\nSvt[info]: -------------------------------------------\nSvt[info]: SVT [version]:\tSVT-AV1 Encoder Lib v3.1.0-19-g6ecfe8ec\nSvt[info]: SVT [build]  :\tGCC 15.2.0\t 64 bit\nSvt[info]: LIB Build date: Aug 17 2025 11:37:13\nSvt[info]: -------------------------------------------\nSvt[info]: Level of Parallelism: 5\nSvt[info]: Number of PPCS 93\nSvt[info]: [asm level on system : up to avx2]\nSvt[info]: [asm level selected : up to avx2]\nSvt[info]: -------------------------------------------\nSvt[info]: SVT [config]: main profile\ttier (auto)\tlevel (auto)\nSvt[info]: SVT [config]: width / height / fps numerator / fps denominator \t\t: 1920 / 1080 / 60 / 1\nSvt[info]: SVT [config]: bit-depth / color format \t\t\t\t\t: 8 / YUV420\nSvt[info]: SVT [config]: preset / tune / pred struct \t\t\t\t\t: 4 / PSNR / random access\nSvt[info]: SVT [config]: gop size / mini-gop size / key-frame type \t\t\t: 321 / 16 / key frame\nSvt[info]: SVT [config]: BRC mode / target bitrate (kbps)\t\t\t\t: VBR / 2000 \nSvt[info]: SVT [config]: AQ mode / Variance Boost \t\t\t\t\t: 2 / 0\nSvt[info]: SVT [config]: sharpness / luminance-based QP bias \t\t\t\t: 0 / 0\nSvt[info]: SVT [config]: QP scale compress strength \t\t\t\t\t: 0\nSvt[info]: -------------------------------------------\nOutput #0, matroska, to 'C:\\Users\\Peter\\Desktop\\stuff\\MIUN\\quantitative_research\\video_compression\\compressed_videos\\BVI-HD\\av1\\2\\BallUnderWater_1920x1080_60fps_av1.mkv':\n  Metadata:\n    major_brand     : isom\n    minor_version   : 512\n    compatible_brands: isomiso2avc1mp41\n    encoder         : Lavf62.3.100\n  Stream #0:0(und): Video: av1 (AV01 / 0x31305641), yuv420p(tv, progressive), 1920x1080, q=2-31, 2000 kb/s, 60 fps, 1k tbn (default)\n    Metadata:\n      encoder         : Lavc62.11.100 libsvtav1\n      handler_name    : VideoHandler\n      vendor_id       : [0][0][0][0]\n    Side data:\n      cpb: bitrate max/min/avg: 0/0/2000000 buffer size: 2000000 vbv_delay: N/A\nframe=    0 fps=0.0 q=0.0 size=       0KiB time=N/A bitrate=N/A speed=N/A elapsed=0:00:02.15    \nframe=    0 fps=0.0 q=0.0 size=       0KiB time=N/A bitrate=N/A speed=N/A elapsed=0:00:02.87    \nframe=    0 fps=0.0 q=0.0 size=       0KiB time=N/A bitrate=N/A speed=N/A elapsed=0:00:03.49    \nframe=    0 fps=0.0 q=0.0 size=       0KiB time=N/A bitrate=N/A speed=N/A elapsed=0:00:04.13    \nframe=    0 fps=0.0 q=0.0 size=       0KiB time=N/A bitrate=N/A speed=N/A elapsed=0:00:04.76    \nframe=    0 fps=0.0 q=0.0 size=       0KiB time=N/A bitrate=N/A speed=N/A elapsed=0:00:05.42    \nframe=    0 fps=0.0 q=0.0 size=       0KiB time=N/A bitrate=N/A speed=N/A elapsed=0:00:05.95    \nframe=    0 fps=0.0 q=0.0 size=       0KiB time=N/A bitrate=N/A speed=N/A elapsed=0:00:06.49    \nframe=    0 fps=0.0 q=0.0 size=       0KiB time=N/A bitrate=N/A speed=N/A elapsed=0:00:07.05    \nframe=    0 fps=0.0 q=0.0 size=       0KiB time=N/A bitrate=N/A speed=N/A elapsed=0:00:07.59    \nframe=    0 fps=0.0 q=0.0 size=       0KiB time=N/A bitrate=N/A speed=N/A elapsed=0:00:08.15    \nframe=    1 fps=0.1 q=23.0 size=       1KiB time=00:00:00.00 bitrate=N/A speed=   0x elapsed=0:00:08.78    \nframe=    1 fps=0.1 q=23.0 size=       1KiB time=00:00:00.00 bitrate=N/A speed=   0x elapsed=0:00:09.40    \nframe=    1 fps=0.1 q=23.0 size=       1KiB time=00:00:00.00 bitrate=N/A speed=   0x elapsed=0:00:09.98    \nframe=    6 fps=0.6 q=45.0 size=       1KiB time=00:00:00.08 bitrate=  68.4kbits/s speed=0.0079x elapsed=0:00:10.55    \nframe=    8 fps=0.7 q=45.0 size=       1KiB time=00:00:00.11 bitrate=  48.8kbits/s speed=0.0105x elapsed=0:00:11.10    \nframe=   12 fps=1.0 q=42.0 size=       1KiB time=00:00:00.16 bitrate=  34.2kbits/s speed=0.0143x elapsed=0:00:11.67    \nframe=   15 fps=1.2 q=40.0 size=       1KiB time=00:00:00.23 bitrate=  24.4kbits/s speed=0.0187x elapsed=0:00:12.48    \nframe=   18 fps=1.4 q=38.0 size=       1KiB time=00:00:00.28 bitrate=  20.1kbits/s speed=0.0214x elapsed=0:00:13.22    \nframe=   20 fps=1.4 q=38.0 size=       1KiB time=00:00:00.31 bitrate=  18.0kbits/s speed=0.0227x elapsed=0:00:13.92    \nframe=   23 fps=1.6 q=39.0 size=       1KiB time=00:00:00.36 bitrate=  15.5kbits/s speed=0.0252x elapsed=0:00:14.57    \nframe=   27 fps=1.8 q=40.0 size=       1KiB time=00:00:00.43 bitrate=  13.1kbits/s speed=0.0284x elapsed=0:00:15.23    \nframe=   29 fps=1.8 q=38.0 size=       1KiB time=00:00:00.46 bitrate=  12.2kbits/s speed=0.0293x elapsed=0:00:15.93    \nframe=   33 fps=2.0 q=30.0 size=       1KiB time=00:00:00.51 bitrate=  11.0kbits/s speed=0.0313x elapsed=0:00:16.49    \nframe=   37 fps=2.2 q=39.0 size=       1KiB time=00:00:00.58 bitrate=   9.8kbits/s speed=0.034x elapsed=0:00:17.16    \nframe=   40 fps=2.2 q=42.0 size=       1KiB time=00:00:00.63 bitrate=   9.0kbits/s speed=0.0354x elapsed=0:00:17.87    \nframe=   43 fps=2.3 q=40.0 size=       1KiB time=00:00:00.70 bitrate=   8.1kbits/s speed=0.0374x elapsed=0:00:18.71    \nframe=   45 fps=2.3 q=37.0 size=       1KiB time=00:00:00.73 bitrate=   7.8kbits/s speed=0.038x elapsed=0:00:19.30    \nframe=   50 fps=2.5 q=42.0 size=       1KiB time=00:00:00.80 bitrate=   7.1kbits/s speed=0.0402x elapsed=0:00:19.91    \nframe=   52 fps=2.5 q=42.0 size=       1KiB time=00:00:00.83 bitrate=   6.8kbits/s speed=0.0406x elapsed=0:00:20.53    \nframe=   55 fps=2.6 q=38.0 size=       1KiB time=00:00:00.90 bitrate=   6.3kbits/s speed=0.0425x elapsed=0:00:21.19    \nframe=   59 fps=2.7 q=40.0 size=       1KiB time=00:00:00.95 bitrate=   6.0kbits/s speed=0.0432x elapsed=0:00:21.97    \nframe=   61 fps=2.7 q=37.0 size=       1KiB time=00:00:01.00 bitrate=   5.7kbits/s speed=0.044x elapsed=0:00:22.74    \nframe=   65 fps=2.8 q=22.0 size=       1KiB time=00:00:01.05 bitrate=   5.4kbits/s speed=0.045x elapsed=0:00:23.33    \nframe=   68 fps=2.8 q=41.0 size=       1KiB time=00:00:01.10 bitrate=   5.2kbits/s speed=0.046x elapsed=0:00:23.90    \nframe=   71 fps=2.9 q=38.0 size=       1KiB time=00:00:01.15 bitrate=   5.0kbits/s speed=0.0467x elapsed=0:00:24.60    \nframe=   74 fps=2.9 q=40.0 size=       1KiB time=00:00:01.21 bitrate=   4.7kbits/s speed=0.0479x elapsed=0:00:25.39    \nframe=   76 fps=2.9 q=39.0 size=       1KiB time=00:00:01.23 bitrate=   4.6kbits/s speed=0.0474x elapsed=0:00:26.04    \nframe=   80 fps=3.0 q=39.0 size=       1KiB time=00:00:01.30 bitrate=   4.4kbits/s speed=0.0487x elapsed=0:00:26.66    \nframe=   83 fps=3.0 q=41.0 size=       1KiB time=00:00:01.36 bitrate=   4.2kbits/s speed=0.0501x elapsed=0:00:27.30    \nframe=   86 fps=3.1 q=37.0 size=       1KiB time=00:00:01.41 bitrate=   4.0kbits/s speed=0.0507x elapsed=0:00:27.95    \nframe=   89 fps=3.1 q=33.0 size=       1KiB time=00:00:01.45 bitrate=   3.9kbits/s speed=0.0507x elapsed=0:00:28.57    \nframe=   91 fps=3.1 q=40.0 size=       1KiB time=00:00:01.48 bitrate=   3.8kbits/s speed=0.0507x elapsed=0:00:29.23    \nframe=   92 fps=3.1 q=40.0 size=       1KiB time=00:00:01.51 bitrate=   3.8kbits/s speed=0.0508x elapsed=0:00:29.87    \nframe=   96 fps=3.2 q=41.0 size=       1KiB time=00:00:01.58 bitrate=   3.6kbits/s speed=0.0521x elapsed=0:00:30.41    \nframe=  100 fps=3.2 q=40.0 size=       1KiB time=00:00:01.63 bitrate=   3.5kbits/s speed=0.0527x elapsed=0:00:30.97    \nframe=  102 fps=3.2 q=39.0 size=       1KiB time=00:00:01.68 bitrate=   3.4kbits/s speed=0.0534x elapsed=0:00:31.53    \nframe=  104 fps=3.2 q=39.0 size=       1KiB time=00:00:01.71 bitrate=   3.3kbits/s speed=0.0536x elapsed=0:00:32.05    \nframe=  107 fps=3.3 q=40.0 size=       1KiB time=00:00:01.76 bitrate=   3.2kbits/s speed=0.0542x elapsed=0:00:32.57    \nframe=  109 fps=3.3 q=37.0 size=       1KiB time=00:00:01.80 bitrate=   3.2kbits/s speed=0.0544x elapsed=0:00:33.11    \nframe=  114 fps=3.4 q=41.0 size=       1KiB time=00:00:01.86 bitrate=   3.1kbits/s speed=0.0554x elapsed=0:00:33.66    \nframe=  116 fps=3.4 q=40.0 size=       1KiB time=00:00:01.91 bitrate=   3.0kbits/s speed=0.056x elapsed=0:00:34.22    \nframe=  118 fps=3.4 q=40.0 size=       1KiB time=00:00:01.95 bitrate=   2.9kbits/s speed=0.0561x elapsed=0:00:34.78    \nframe=  119 fps=3.4 q=38.0 size=       1KiB time=00:00:01.96 bitrate=   2.9kbits/s speed=0.0555x elapsed=0:00:35.41    \nframe=  120 fps=3.3 q=32.0 size=       1KiB time=00:00:02.00 bitrate=   2.8kbits/s speed=0.0557x elapsed=0:00:35.93    \nframe=  123 fps=3.4 q=40.0 size=       1KiB time=00:00:02.03 bitrate=   2.8kbits/s speed=0.0558x elapsed=0:00:36.45    \nframe=  126 fps=3.4 q=37.0 size=       1KiB time=00:00:02.08 bitrate=   2.7kbits/s speed=0.0563x elapsed=0:00:36.97    \nframe=  127 fps=3.4 q=39.0 size=       1KiB time=00:00:02.10 bitrate=   2.7kbits/s speed=0.0559x elapsed=0:00:37.57    \nframe=  131 fps=3.4 q=40.0 size=       1KiB time=00:00:02.16 bitrate=   2.6kbits/s speed=0.0568x elapsed=0:00:38.11    \nframe=  133 fps=3.4 q=38.0 size=       1KiB time=00:00:02.20 bitrate=   2.6kbits/s speed=0.0569x elapsed=0:00:38.65    \nframe=  135 fps=3.4 q=38.0 size=       1KiB time=00:00:02.23 bitrate=   2.6kbits/s speed=0.057x elapsed=0:00:39.16    \nframe=  139 fps=3.5 q=40.0 size=       1KiB time=00:00:02.30 bitrate=   2.5kbits/s speed=0.058x elapsed=0:00:39.68    \nframe=  140 fps=3.5 q=39.0 size=       1KiB time=00:00:02.31 bitrate=   2.5kbits/s speed=0.0576x elapsed=0:00:40.22    \nframe=  144 fps=3.5 q=39.0 size=       1KiB time=00:00:02.38 bitrate=   2.4kbits/s speed=0.0585x elapsed=0:00:40.72    \nframe=  148 fps=3.6 q=40.0 size=       1KiB time=00:00:02.45 bitrate=   2.3kbits/s speed=0.0594x elapsed=0:00:41.25    \nframe=  150 fps=3.6 q=39.0 size=       1KiB time=00:00:02.48 bitrate=   2.3kbits/s speed=0.0594x elapsed=0:00:41.77    \nframe=  151 fps=3.6 q=38.0 size=       1KiB time=00:00:02.50 bitrate=   2.3kbits/s speed=0.0591x elapsed=0:00:42.29    \nframe=  155 fps=3.6 q=40.0 size=       1KiB time=00:00:02.56 bitrate=   2.2kbits/s speed=0.0599x elapsed=0:00:42.83    \nframe=  159 fps=3.7 q=40.0 size=       1KiB time=00:00:02.61 bitrate=   2.2kbits/s speed=0.0603x elapsed=0:00:43.40    \nframe=  161 fps=3.7 q=24.0 size=       1KiB time=00:00:02.66 bitrate=   2.1kbits/s speed=0.0606x elapsed=0:00:44.01    \nframe=  163 fps=3.7 q=41.0 size=       1KiB time=00:00:02.70 bitrate=   2.1kbits/s speed=0.0606x elapsed=0:00:44.52    \nframe=  166 fps=3.7 q=40.0 size=       1KiB time=00:00:02.75 bitrate=   2.1kbits/s speed=0.0611x elapsed=0:00:45.03    \nframe=  168 fps=3.7 q=40.0 size=       1KiB time=00:00:02.78 bitrate=   2.0kbits/s speed=0.0611x elapsed=0:00:45.56    \nframe=  172 fps=3.7 q=41.0 size=       1KiB time=00:00:02.85 bitrate=   2.0kbits/s speed=0.0618x elapsed=0:00:46.09    \nframe=  175 fps=3.8 q=41.0 size=       1KiB time=00:00:02.90 bitrate=   2.0kbits/s speed=0.0622x elapsed=0:00:46.63    \nframe=  179 fps=3.8 q=41.0 size=       1KiB time=00:00:02.96 bitrate=   1.9kbits/s speed=0.0629x elapsed=0:00:47.15    \nframe=  182 fps=3.8 q=40.0 size=       1KiB time=00:00:03.01 bitrate=   1.9kbits/s speed=0.0633x elapsed=0:00:47.67    \nframe=  183 fps=3.8 q=39.0 size=       1KiB time=00:00:03.03 bitrate=   1.9kbits/s speed=0.0629x elapsed=0:00:48.21    \nframe=  187 fps=3.8 q=40.0 size=       1KiB time=00:00:03.10 bitrate=   1.8kbits/s speed=0.0635x elapsed=0:00:48.78    \nframe=  188 fps=3.8 q=38.0 size=       1KiB time=00:00:03.11 bitrate=   1.8kbits/s speed=0.0632x elapsed=0:00:49.30    \nframe=  193 fps=3.9 q=28.0 size=       1KiB time=00:00:03.20 bitrate=   1.8kbits/s speed=0.0642x elapsed=0:00:49.86    \nframe=  196 fps=3.9 q=40.0 size=       1KiB time=00:00:03.25 bitrate=   1.8kbits/s speed=0.0645x elapsed=0:00:50.38    \nframe=  198 fps=3.9 q=40.0 size=       1KiB time=00:00:03.28 bitrate=   1.7kbits/s speed=0.0645x elapsed=0:00:50.90    \nframe=  200 fps=3.9 q=40.0 size=       1KiB time=00:00:03.31 bitrate=   1.7kbits/s speed=0.0645x elapsed=0:00:51.44    \nframe=  202 fps=3.9 q=40.0 size=       1KiB time=00:00:03.35 bitrate=   1.7kbits/s speed=0.0645x elapsed=0:00:51.96    \nframe=  205 fps=3.9 q=38.0 size=       1KiB time=00:00:03.40 bitrate=   1.7kbits/s speed=0.0647x elapsed=0:00:52.54    \nframe=  209 fps=3.9 q=29.0 size=       1KiB time=00:00:03.46 bitrate=   1.6kbits/s speed=0.0653x elapsed=0:00:53.08    \nframe=  213 fps=4.0 q=39.0 size=       1KiB time=00:00:03.53 bitrate=   1.6kbits/s speed=0.0659x elapsed=0:00:53.60    \nframe=  215 fps=4.0 q=39.0 size=       1KiB time=00:00:03.56 bitrate=   1.6kbits/s speed=0.0658x elapsed=0:00:54.17    \nframe=  217 fps=4.0 q=33.0 size=       1KiB time=00:00:03.60 bitrate=   1.6kbits/s speed=0.0658x elapsed=0:00:54.69    \nframe=  217 fps=3.9 q=33.0 size=       1KiB time=00:00:03.60 bitrate=   1.6kbits/s speed=0.0652x elapsed=0:00:55.25    \nframe=  221 fps=4.0 q=38.0 size=       1KiB time=00:00:03.66 bitrate=   1.6kbits/s speed=0.0657x elapsed=0:00:55.77    \nframe=  225 fps=4.0 q=26.0 size=       1KiB time=00:00:03.73 bitrate=   1.5kbits/s speed=0.0663x elapsed=0:00:56.32    \nframe=  229 fps=4.0 q=39.0 size=       1KiB time=00:00:03.80 bitrate=   1.5kbits/s speed=0.0668x elapsed=0:00:56.86    \nframe=  233 fps=4.1 q=34.0 size=       1KiB time=00:00:03.86 bitrate=   1.5kbits/s speed=0.0674x elapsed=0:00:57.38    \nframe=  237 fps=4.1 q=38.0 size=       1KiB time=00:00:03.93 bitrate=   1.4kbits/s speed=0.0679x elapsed=0:00:57.89    \nframe=  237 fps=4.1 q=38.0 size=       1KiB time=00:00:03.93 bitrate=   1.4kbits/s speed=0.0673x elapsed=0:00:58.42    \nframe=  241 fps=4.1 q=26.0 size=       1KiB time=00:00:04.00 bitrate=   1.4kbits/s speed=0.0679x elapsed=0:00:58.92    \nframe=  245 fps=4.1 q=41.0 size=       1KiB time=00:00:04.06 bitrate=   1.4kbits/s speed=0.0684x elapsed=0:00:59.46    \nframe=  249 fps=4.2 q=37.0 size=       1KiB time=00:00:04.13 bitrate=   1.4kbits/s speed=0.0689x elapsed=0:00:59.98    \nframe=  249 fps=4.1 q=37.0 size=       1KiB time=00:00:04.13 bitrate=   1.4kbits/s speed=0.0683x elapsed=0:01:00.52    \nframe=  253 fps=4.1 q=38.0 size=       1KiB time=00:00:04.20 bitrate=   1.4kbits/s speed=0.0688x elapsed=0:01:01.06    \nframe=  253 fps=4.1 q=38.0 size=       1KiB time=00:00:04.20 bitrate=   1.4kbits/s speed=0.0682x elapsed=0:01:01.59    \nframe=  257 fps=4.1 q=28.0 size=       1KiB time=00:00:04.26 bitrate=   1.3kbits/s speed=0.0686x elapsed=0:01:02.15    \nframe=  261 fps=4.2 q=37.0 size=       1KiB time=00:00:04.33 bitrate=   1.3kbits/s speed=0.0691x elapsed=0:01:02.67    \nframe=  263 fps=4.2 q=39.0 size=       1KiB time=00:00:04.36 bitrate=   1.3kbits/s speed=0.069x elapsed=0:01:03.24    \nframe=  265 fps=4.2 q=38.0 size=       1KiB time=00:00:04.40 bitrate=   1.3kbits/s speed=0.069x elapsed=0:01:03.76    \nframe=  269 fps=4.2 q=40.0 size=       1KiB time=00:00:04.46 bitrate=   1.3kbits/s speed=0.0694x elapsed=0:01:04.38    \nframe=  273 fps=4.2 q=31.0 size=       1KiB time=00:00:04.53 bitrate=   1.3kbits/s speed=0.0698x elapsed=0:01:04.90    \nframe=  277 fps=4.2 q=44.0 size=       1KiB time=00:00:04.60 bitrate=   1.2kbits/s speed=0.0703x elapsed=0:01:05.42    \nframe=  281 fps=4.3 q=40.0 size=       1KiB time=00:00:04.66 bitrate=   1.2kbits/s speed=0.0707x elapsed=0:01:05.96    \nframe=  281 fps=4.2 q=40.0 size=       1KiB time=00:00:04.66 bitrate=   1.2kbits/s speed=0.0702x elapsed=0:01:06.48    \nframe=  285 fps=4.3 q=44.0 size=       1KiB time=00:00:04.73 bitrate=   1.2kbits/s speed=0.0706x elapsed=0:01:07.02    \n[out#0/matroska @ 000001a31937a0c0] video:1194KiB audio:0KiB subtitle:0KiB other streams:0KiB global headers:0KiB muxing overhead: 0.173794%\nframe=  300 fps=4.4 q=44.0 Lsize=    1196KiB time=00:00:04.98 bitrate=1966.3kbits/s speed=0.0738x elapsed=0:01:07.53    \n",
  "seconds": 68.88312721252441,
  "probe_out": {}
}